<?xml version="1.0" standalone="no"?>
<!DOCTYPE svg PUBLIC "-//W3C//DTD SVG 20010904//EN"
 "http://www.w3.org/TR/2001/REC-SVG-20010904/DTD/svg10.dtd">
<svg version="1.0" xmlns="http://www.w3.org/2000/svg"
 width="52.000000pt" height="52.000000pt" viewBox="0 0 52.000000 52.000000"
 preserveAspectRatio="xMidYMid meet">

<g transform="translate(0.000000,52.000000) scale(0.100000,-0.100000)"
fill="#000000" stroke="none">
<path d="M166 458 c-19 -31 -45 -362 -30 -386 14 -22 54 -29 195 -38 116 -7
117 -6 132 17 17 27 44 329 34 371 -8 32 -19 36 -131 48 -149 16 -183 14 -200
-12z m272 -35 c20 -5 22 -11 22 -73 0 -73 -10 -92 -32 -62 -25 35 -37 34 -83
-5 -30 -25 -43 -43 -39 -53 3 -8 8 -22 11 -30 3 -8 -12 2 -35 24 -41 39 -48
40 -87 11 -21 -14 -21 -14 -12 83 4 53 10 103 13 111 4 11 25 12 112 7 59 -4
117 -10 130 -13z"/>
<path d="M224 386 c-12 -31 0 -51 31 -51 27 0 30 3 30 30 0 25 -4 30 -28 33
-17 2 -29 -2 -33 -12z"/>
<path d="M39 451 l-23 -18 13 -174 c14 -193 22 -219 72 -219 26 0 29 2 19 19
-16 30 -9 202 15 374 l5 37 -39 0 c-23 0 -48 -8 -62 -19z"/>
</g>
</svg>
