<?xml version="1.0" standalone="no"?><!DOCTYPE svg PUBLIC "-//W3C//DTD SVG 1.1//EN" "http://www.w3.org/Graphics/SVG/1.1/DTD/svg11.dtd"><svg t="1626663358898" class="icon" viewBox="0 0 1024 1024" version="1.1" xmlns="http://www.w3.org/2000/svg" p-id="2012" xmlns:xlink="http://www.w3.org/1999/xlink" width="200" height="200"><defs><style type="text/css"></style></defs><path d="M725.333333 512l-213.333333 0 0 213.333333 213.333333 0L725.333333 512zM682.666667 42.666667l0 85.333333L341.333333 128 341.333333 42.666667 256 42.666667l0 85.333333L213.333333 128C166.4 128 128 166.4 128 213.333333l0 597.333333c0 46.933333 38.4 85.333333 85.333333 85.333333l597.333333 0c46.933333 0 85.333333-38.4 85.333333-85.333333L896 213.333333c0-46.933333-38.4-85.333333-85.333333-85.333333l-42.666667 0L768 42.666667 682.666667 42.666667zM810.666667 810.666667 213.333333 810.666667 213.333333 341.333333l597.333333 0L810.666667 810.666667z" p-id="2013"></path></svg>