<?xml version="1.0" standalone="no"?><!DOCTYPE svg PUBLIC "-//W3C//DTD SVG 1.1//EN" "http://www.w3.org/Graphics/SVG/1.1/DTD/svg11.dtd"><svg t="1627215257904" class="icon" viewBox="0 0 1024 1024" version="1.1" xmlns="http://www.w3.org/2000/svg" p-id="1959" xmlns:xlink="http://www.w3.org/1999/xlink" width="200" height="200"><defs><style type="text/css">@font-face { font-family: feedback-iconfont; src: url("//at.alicdn.com/t/font_1031158_1uhr8ri0pk5.eot?#iefix") format("embedded-opentype"), url("//at.alicdn.com/t/font_1031158_1uhr8ri0pk5.woff2") format("woff2"), url("//at.alicdn.com/t/font_1031158_1uhr8ri0pk5.woff") format("woff"), url("//at.alicdn.com/t/font_1031158_1uhr8ri0pk5.ttf") format("truetype"), url("//at.alicdn.com/t/font_1031158_1uhr8ri0pk5.svg#iconfont") format("svg"); }
</style></defs><path d="M213.704348 445.217391C291.617391 601.043478 422.956522 727.930435 578.782609 810.295652l122.434783-122.434783c15.582609-15.582609 37.843478-22.26087 55.652174-11.130435 60.104348 22.26087 126.886957 33.391304 198.121739 33.391304 33.391304 0 55.652174 22.26087 55.652174 55.652174l0 186.991304c0 33.391304-22.26087 55.652174-55.652174 55.652174C434.086957 1008.417391 15.582609 589.913043 15.582609 71.234783c0-33.391304 22.26087-55.652174 55.652174-55.652174l193.669565 0c33.391304 0 55.652174 22.26087 55.652174 55.652174 0 66.782609 11.130435 133.565217 33.391304 198.121739 4.452174 15.582609 0 37.843478-11.130435 55.652174L213.704348 445.217391z" p-id="1960"></path></svg>