<?xml version="1.0" standalone="no"?><!DOCTYPE svg PUBLIC "-//W3C//DTD SVG 1.1//EN" "http://www.w3.org/Graphics/SVG/1.1/DTD/svg11.dtd"><svg t="1626833117494" class="icon" viewBox="0 0 1024 1024" version="1.1" xmlns="http://www.w3.org/2000/svg" p-id="1294" xmlns:xlink="http://www.w3.org/1999/xlink" width="200" height="200"><defs><style type="text/css"></style></defs><path d="M512 85.333333C277.333333 85.333333 85.333333 277.333333 85.333333 512c0 234.666667 192 426.666667 426.666667 426.666667 234.666667 0 426.666667-192 426.666667-426.666667C938.666667 277.333333 746.666667 85.333333 512 85.333333zM469.333333 849.066667c-166.4-21.333333-298.666667-166.4-298.666667-337.066667 0-25.6 4.266667-51.2 8.533333-76.8L384 640l0 42.666667c0 46.933333 38.4 85.333333 85.333333 85.333333L469.333333 849.066667zM763.733333 742.4c-12.8-34.133333-42.666667-59.733333-81.066667-59.733333l-42.666667 0 0-128c0-25.6-17.066667-42.666667-42.666667-42.666667L341.333333 512l0-85.333333 85.333333 0c25.6 0 42.666667-17.066667 42.666667-42.666667L469.333333 298.666667l85.333333 0c46.933333 0 85.333333-38.4 85.333333-85.333333L640 196.266667c123.733333 51.2 213.333333 174.933333 213.333333 315.733333C853.333333 601.6 819.2 682.666667 763.733333 742.4z" p-id="1295"></path></svg>