<?xml version="1.0" standalone="no"?><!DOCTYPE svg PUBLIC "-//W3C//DTD SVG 1.1//EN" "http://www.w3.org/Graphics/SVG/1.1/DTD/svg11.dtd"><svg t="1626572298789" class="icon" viewBox="0 0 1024 1024" version="1.1" xmlns="http://www.w3.org/2000/svg" p-id="5115" xmlns:xlink="http://www.w3.org/1999/xlink" width="200" height="200"><defs><style type="text/css"></style></defs><path d="M512 0A512 512 0 1 1 0 512 512 512 0 0 1 512 0z m0 81.92a430.08 430.08 0 1 0 430.08 430.08A430.08 430.08 0 0 0 512 81.92z m-6.144 638.976a69.632 69.632 0 0 1 51.2 18.944 69.12 69.12 0 0 1 0 97.28 71.68 71.68 0 0 1-98.304 0 68.096 68.096 0 0 1 0-96.256 68.096 68.096 0 0 1 47.104-19.968zM521.728 204.8a204.8 204.8 0 0 1 143.872 47.104 162.816 162.816 0 0 1 51.2 129.024 177.664 177.664 0 0 1-33.792 110.592l-8.192 8.192-20.48 19.456-56.32 51.2a142.848 142.848 0 0 0-27.136 36.864 132.096 132.096 0 0 0-13.312 58.368v12.288h-102.4V665.6a189.952 189.952 0 0 1 17.92-87.552 392.192 392.192 0 0 1 81.408-92.672l22.528-19.968 11.264-13.312A99.328 99.328 0 0 0 614.4 387.072a98.304 98.304 0 0 0-25.088-69.632 97.28 97.28 0 0 0-71.68-25.088 93.696 93.696 0 0 0-84.48 36.864A147.456 147.456 0 0 0 409.6 416.768H307.2a204.8 204.8 0 0 1 57.856-153.6A216.064 216.064 0 0 1 521.728 204.8z" p-id="5116"></path></svg>