<?xml version="1.0" standalone="no"?><!DOCTYPE svg PUBLIC "-//W3C//DTD SVG 1.1//EN" "http://www.w3.org/Graphics/SVG/1.1/DTD/svg11.dtd"><svg t="1626571791826" class="icon" viewBox="0 0 1024 1024" version="1.1" xmlns="http://www.w3.org/2000/svg" p-id="2890" xmlns:xlink="http://www.w3.org/1999/xlink" width="200" height="200"><defs><style type="text/css"></style></defs><path d="M567.204887 0c15.052597 0 28.518015 9.369474 33.586747 23.398084l36.146712 100.197047c12.953425 3.225556 24.063675 6.451113 33.484348 9.830268 10.291061 3.68635 23.551682 9.267075 39.93546 16.895772l84.171664-44.543399a35.941915 35.941915 0 0 1 42.597825 6.707109l74.034201 76.542967c9.830267 10.188662 12.59503 25.087661 7.065504 38.092286l-39.474667 92.517151c6.553512 12.031838 11.775841 22.322899 15.769387 30.924382 4.300742 9.369474 9.62547 22.271699 15.974185 38.911475l92.005157 39.423468c13.823813 5.887921 22.374098 19.711734 21.452511 34.508334l-6.758309 106.238566a35.327523 35.327523 0 0 1-23.551682 30.975582l-87.141224 30.975581c-2.508766 12.031838-5.119931 22.322899-7.884693 31.026782a450.041924 450.041924 0 0 1-15.257394 39.628265l43.775409 96.766693a34.969128 34.969128 0 0 1-8.601484 40.601052l-83.250076 74.341397a35.993114 35.993114 0 0 1-40.75465 4.915133l-85.810041-45.464986a370.171003 370.171003 0 0 1-41.471441 18.790146l-37.477894 14.028611-33.27955 92.158756a35.634719 35.634719 0 0 1-32.767558 23.398084L466.444647 1023.986176a35.685918 35.685918 0 0 1-34.252337-22.886091l-39.218671-103.780999a748.789891 748.789891 0 0 1-39.730664-14.847799 511.327497 511.327497 0 0 1-31.641172-15.001398l-97.278687 41.573839a35.941915 35.941915 0 0 1-38.655478-6.809508L113.68141 834.702332a34.969128 34.969128 0 0 1-7.935893-40.089059l41.829835-91.13477a487.263822 487.263822 0 0 1-15.462191-32.972355 737.01405 737.01405 0 0 1-15.359793-41.522639L25.106605 601.079885a35.327523 35.327523 0 0 1-25.087661-34.969127l3.583952-98.353873a35.225124 35.225124 0 0 1 20.070129-30.412389l96.152302-46.181777c4.45434-16.33258 8.345487-29.030008 11.775841-38.297083a460.281786 460.281786 0 0 1 16.076583-36.453908L106.001513 228.348917a34.969128 34.969128 0 0 1 7.679897-40.447454l71.883829-67.890283a35.941915 35.941915 0 0 1 38.399482-7.065505l97.176288 40.140258c10.751855-7.167903 20.479724-12.953425 29.286004-17.612562 10.495858-5.580725 24.524469-11.417446 42.188231-17.714961l33.791544-94.257927A35.634719 35.634719 0 0 1 459.993534 0h107.211353z m-53.964071 359.367949c-85.349248 0-154.519514 68.351077-154.519514 152.727538 0 84.376461 69.170266 152.778737 154.519514 152.778737 85.298048 0 154.468315-68.402277 154.468314-152.778737s-69.119067-152.727538-154.468314-152.727538z" fill="#555555" p-id="2891"></path></svg>