<?xml version="1.0" standalone="no"?><!DOCTYPE svg PUBLIC "-//W3C//DTD SVG 1.1//EN" "http://www.w3.org/Graphics/SVG/1.1/DTD/svg11.dtd"><svg t="1626939401207" class="icon" viewBox="0 0 1024 1024" version="1.1" xmlns="http://www.w3.org/2000/svg" p-id="4355" xmlns:xlink="http://www.w3.org/1999/xlink" width="200" height="200"><defs><style type="text/css">@font-face { font-family: feedback-iconfont; src: url("//at.alicdn.com/t/font_1031158_1uhr8ri0pk5.eot?#iefix") format("embedded-opentype"), url("//at.alicdn.com/t/font_1031158_1uhr8ri0pk5.woff2") format("woff2"), url("//at.alicdn.com/t/font_1031158_1uhr8ri0pk5.woff") format("woff"), url("//at.alicdn.com/t/font_1031158_1uhr8ri0pk5.ttf") format("truetype"), url("//at.alicdn.com/t/font_1031158_1uhr8ri0pk5.svg#iconfont") format("svg"); }
</style></defs><path d="M704 755.8 204.8 755.8 204.8 396.4l115 0c0 0 28.2-39.4 85.4-76.4L166.4 320c-21.2 0-38.4 17-38.4 38.2l0 435.8c0 21 17.2 38.2 38.4 38.2l576 0c21.2 0 38.4-17 38.4-38.2L780.8 576 704 638.8 704 755.8zM640 448l0 127.8 256-191L640 192l0 119.4C330.4 311.4 320 640 320 640 407.6 497 472 448 640 448z" p-id="4356"></path></svg>