<?xml version="1.0" standalone="no"?><!DOCTYPE svg PUBLIC "-//W3C//DTD SVG 1.1//EN" "http://www.w3.org/Graphics/SVG/1.1/DTD/svg11.dtd"><svg t="1626663517018" class="icon" viewBox="0 0 1024 1024" version="1.1" xmlns="http://www.w3.org/2000/svg" p-id="6288" xmlns:xlink="http://www.w3.org/1999/xlink" width="200" height="200"><defs><style type="text/css"></style></defs><path d="M682.666667 519.253333A128.042667 128.042667 0 1 0 846.08 682.666667H725.333333a42.666667 42.666667 0 0 1-42.666666-42.666667v-120.746667z m85.333333 0V597.333333h78.08A128.341333 128.341333 0 0 0 768 519.253333zM128 170.666667h768v85.333333H128V170.666667z m0 213.333333h384v85.333333H128V384z m0 170.666667h298.666667v85.333333H128v-85.333333z m0 170.666666h256v85.333334H128v-85.333334z m597.333333 128a213.333333 213.333333 0 1 1 0-426.666666 213.333333 213.333333 0 0 1 0 426.666666z" p-id="6289"></path></svg>